<!-- icon666.com - MILLIONS OF FREE VECTOR ICONS --><svg id="Layer_1" viewBox="0 0 48 48" xmlns="http://www.w3.org/2000/svg"><g fill="rgb(0,0,0)"><path d="m20.43 25.722c-.276 0-.5.224-.5.5v4.5c0 .276.224.5.5.5s.5-.224.5-.5v-4.5c0-.277-.223-.5-.5-.5z"></path><path d="m46.535 22.54-2.422-3.1.768-3.461.795-.264c.262-.087.402-.371.316-.632-.088-.262-.367-.404-.633-.317l-9.541 3.174c-.059.02-.113.049-.16.088-2.583 2.124-4.947 2.109-5.829 2.008-.005-.042-.006-.088-.015-.124-.047-.183-.191-.325-.377-.366-1.057-.234-2.611-2.697-3.344-4.194-.068-.139-.197-.239-.35-.27-8.092-1.649-10.552 3.122-10.653 3.325-.032.064-.047.132-.05.199-.39-.29-.75-.722-1.045-1.261l4.097-4.164h3.089c.276 0 .5-.224.5-.5 0-.277-.224-.5-.5-.5h-3.299c-.134 0-.263.054-.356.149l-3.954 4.019c-.037-.115-.079-.227-.11-.346-.409-1.568-.265-3.567 1.365-4.481.211-.117.307-.369.229-.597s-.302-.364-.547-.333c-.249.037-6.118.997-7.73 9.44-.027.142.009.288.097.401.089.113.222.183.365.192.186.011 2.242.161 4.433 1.392-.13.042-.244.133-.304.269l-.821 1.838c-.729-.264-1.511-.416-2.33-.416-3.783 0-6.861 3.078-6.861 6.861 0 3.784 3.078 6.863 6.861 6.863 3.784 0 6.863-3.079 6.863-6.863 0-2.61-1.466-4.883-3.617-6.042l.818-1.833c.042-.094.043-.193.027-.287 2.508 1.652 4.974 4.83 4.825 10.945-.003.135.048.266.143.361.094.098.223.151.357.151h12.625c.199 0 .379-.118.459-.302.078-.184.041-.396-.096-.541-.015-.016-.666-.715-1.453-1.846l2.262 1.043c.049.023.102.037.156.043l1.032.107c.806 2.95 3.511 5.063 6.601 5.063 3.783 0 6.863-3.079 6.863-6.863 0-3.783-3.08-6.861-6.863-6.861-3.119 0-5.794 2.072-6.606 5.058l-1.065.052-2.64.484 1.839-5.031c2.521-.362 5.434-2.214 5.953-2.556l6.675-1.593 2.37 3.034c.1.126.246.192.395.192.107 0 .217-.035.307-.106.219-.17.258-.484.086-.701zm-32.451 8.027c0 3.233-2.63 5.863-5.863 5.863-3.232 0-5.861-2.63-5.861-5.863 0-3.231 2.629-5.861 5.861-5.861.674 0 1.318.12 1.921.33l-1.251 2.804c-.215-.053-.438-.089-.669-.089-1.553 0-2.816 1.264-2.816 2.816 0 1.554 1.264 2.818 2.816 2.818 1.554 0 2.818-1.265 2.818-2.818 0-.965-.489-1.817-1.232-2.325l1.25-2.801c1.802 1.001 3.026 2.923 3.026 5.126zm-6.067.456c.066.03.136.044.204.044.191 0 .374-.11.457-.296l.708-1.587c.396.334.653.826.653 1.383 0 1.003-.815 1.818-1.818 1.818-1.002 0-1.816-.815-1.816-1.818 0-1.001.814-1.816 1.816-1.816.086 0 .168.014.251.025l-.708 1.587c-.112.252.001.548.253.66zm7.971-12.173c.021-.043 2.165-4.194 9.319-2.834.441.86 1.922 3.568 3.451 4.337-.01.013-.02.027-.029.041-.248.312-1.217 1.038-4.904.98-.003 0-.006 0-.008 0-.019 0-.034.008-.052.01-2.437-1.715-5.817-2.375-7.667-2.375-.07 0-.14-.02-.21-.03.038-.038.075-.078.1-.129zm2.156 14.012c.013-10.785-8.036-12.813-10.273-13.167.99-4.47 3.267-6.501 4.912-7.41-.553 1.087-.674 2.487-.286 3.97.108.414.256.795.422 1.157.008.023.019.044.031.067.724 1.53 1.912 2.53 3.148 2.53 2.932 0 8.716 1.626 9.462 5.544.611 3.199 2.549 5.974 3.617 7.309zm21.079-8.155c3.232 0 5.863 2.629 5.863 5.861 0 3.233-2.631 5.863-5.863 5.863-2.507 0-4.718-1.63-5.523-3.952l3.939.408c.469.321 1.011.499 1.584.499.379 0 .746-.075 1.091-.222l2.108.219c.018.002.035.003.053.003.158 0 .311-.076.404-.208 1.402-1.941.734-3.916.184-4.689-.098-.139-.246-.223-.432-.209l-1.692.082c-.027-.033-.052-.068-.089-.095-.998-.706-2.443-.663-3.396.109-.056.045-.099.101-.129.16l-3.644.177c.793-2.377 2.988-4.006 5.542-4.006zm-7.557 5.1 10.711-.514c.248.486.689 1.704-.15 3.064l-10.451-1.084-2.301-1.061zm4.719-9.045c-.059.013-.113.038-.162.071-.033.022-3.355 2.244-5.883 2.479-.191.018-.357.145-.424.327l-2.001 5.475c-.589-1.116-1.114-2.396-1.372-3.746-.227-1.192-.814-2.185-1.612-3.005 2.386-.075 3.931-.524 4.583-1.348.003-.004.005-.008.008-.012.211.032.519.065.926.065 1.297 0 3.473-.346 5.773-2.208l7.554-2.512-.62 2.8z"></path></g></svg>